<svg xmlns="http://www.w3.org/2000/svg" width="800" height="480" viewBox="0 0 800 480" role="img" aria-label="QR Menu preview">
  <rect width="800" height="480" fill="#0d2137"/>
  <rect x="270" y="36" width="260" height="408" rx="36" fill="#112240" stroke="#233554" stroke-width="4"/>
  <rect x="292" y="72" width="216" height="336" rx="16" fill="#0a192f"/>
  <rect x="348" y="88" width="104" height="104" rx="8" fill="#1a365d"/>
  <rect x="360" y="100" width="32" height="32" fill="#64ffda" opacity="0.85"/>
  <rect x="408" y="100" width="32" height="32" fill="#64ffda" opacity="0.85"/>
  <rect x="360" y="148" width="32" height="32" fill="#64ffda" opacity="0.85"/>
  <rect x="400" y="140" width="16" height="16" fill="#64ffda" opacity="0.5"/>
  <rect x="424" y="156" width="16" height="16" fill="#64ffda" opacity="0.5"/>
  <rect x="328" y="208" width="144" height="10" rx="5" fill="#ccd6f6"/>
  <rect x="312" y="236" width="176" height="36" rx="10" fill="#1a365d"/>
  <rect x="312" y="280" width="176" height="36" rx="10" fill="#1a365d"/>
  <rect x="312" y="324" width="176" height="36" rx="10" fill="#1a365d"/>
  <circle cx="400" cy="52" r="6" fill="#233554"/>
</svg>
