<svg xmlns="http://www.w3.org/2000/svg" width="800" height="480" viewBox="0 0 800 480" role="img" aria-label="Project One preview">
  <rect width="800" height="480" fill="#0d2137"/>
  <rect x="40" y="36" width="720" height="408" rx="16" fill="#112240"/>
  <rect x="64" y="60" width="180" height="360" rx="10" fill="#0a192f"/>
  <rect x="84" y="88" width="140" height="12" rx="6" fill="#64ffda" opacity="0.7"/>
  <rect x="84" y="120" width="110" height="8" rx="4" fill="#8892b0"/>
  <rect x="84" y="144" width="120" height="8" rx="4" fill="#8892b0" opacity="0.6"/>
  <rect x="84" y="168" width="90" height="8" rx="4" fill="#8892b0" opacity="0.4"/>
  <rect x="268" y="60" width="468" height="120" rx="10" fill="#1a365d"/>
  <rect x="292" y="88" width="200" height="14" rx="7" fill="#ccd6f6"/>
  <rect x="292" y="118" width="320" height="8" rx="4" fill="#64ffda" opacity="0.5"/>
  <rect x="268" y="200" width="220" height="220" rx="10" fill="#1a365d"/>
  <rect x="516" y="200" width="220" height="220" rx="10" fill="#1a365d"/>
  <circle cx="378" cy="310" r="48" fill="#64ffda" opacity="0.25"/>
  <circle cx="626" cy="310" r="48" fill="#64ffda" opacity="0.15"/>
</svg>
